<?xml version="1.0" encoding="UTF-8"?>
<svg width="78px" height="78px" viewBox="0 0 78 78" version="1.1" xmlns="http://www.w3.org/2000/svg" xmlns:xlink="http://www.w3.org/1999/xlink">
    <!-- Generator: Sketch 60.1 (88133) - https://sketch.com -->
    <title>arrow left blue</title>
    <desc>Created with Sketch.</desc>
    <g id="Page-4" stroke="none" stroke-width="1" fill="none" fill-rule="evenodd">
        <g id="-----copy-2">
            <g id="arrow-left-blue">
                <path d="M39,0 C17.4608948,0 0,17.4608948 0,39 C0,60.5391052 17.4608948,78 39,78 C60.5391052,78 78,60.5391052 78,39 C78,17.4608948 60.5391052,0 39,0 Z M39,3 C58.882251,3 75,19.117749 75,39 C75,58.882251 58.882251,75 39,75 C19.117749,75 3,58.882251 3,39 C3,19.117749 19.117749,3 39,3 Z" id="arrow-blue" fill="#3BC0EA" fill-rule="nonzero"></path>
                <path d="M39,3 C58.882251,3 75,19.117749 75,39 C75,58.882251 58.882251,75 39,75 C19.117749,75 3,58.882251 3,39 C3,19.117749 19.117749,3 39,3 Z" id="Path" fill="#FFFFFF" fill-rule="nonzero"></path>
                <polygon id="arrow-right" fill="#3BC0EA" points="36.1530224 26.5 21.5 39.2303853 36.1530224 51.9545455 38.4219419 49.6761489 28.1801523 40.780442 56.5 40.780442 56.5 37.6678783 28.1868158 37.6678783 38.4219419 28.7783966"></polygon>
            </g>
        </g>
    </g>
</svg>