<?xml version="1.0" encoding="UTF-8"?>
<svg width="529px" height="447px" viewBox="0 0 529 447" version="1.1" xmlns="http://www.w3.org/2000/svg" xmlns:xlink="http://www.w3.org/1999/xlink">
    <!-- Generator: Sketch 60.1 (88133) - https://sketch.com -->
    <title>suitcase</title>
    <desc>Created with Sketch.</desc>
    <g id="Page-1" stroke="none" stroke-width="1" fill="none" fill-rule="evenodd">
        <g id="Apple-TV">
            <g id="suitcase" transform="translate(2.000000, 2.000000)">
                <path d="M211.168578,52.0436079 C211.183355,42.4688634 218.929542,34.7065977 228.484454,34.6858667 L302.346613,34.6858667 C311.907436,34.7065977 319.644757,42.4688634 319.665445,52.0436079 L319.665445,59.2579839 L211.168578,59.2579839 L211.168578,52.0436079 Z M471.438704,59.2579839 L354.27651,59.2579839 L354.27651,52.0436079 C354.267644,23.2927204 331.037948,0.0148078324 302.346613,0 L228.484454,0 C199.796075,0.0148078324 176.566379,23.2927204 176.554557,52.0436079 L176.554557,59.2579839 L53.5672065,59.2579839 C23.9833314,59.2579839 0,83.2881343 0,112.936376 L0,359.886598 C0,387.026393 20.1058045,409.445452 46.2022698,413.043755 C46.1874926,413.378412 46.1461166,413.710107 46.1461166,414.044764 C46.1372503,422.283842 50.0147772,429.69072 55.896087,434.805346 C61.7892186,439.943663 69.7393309,442.994077 78.4046578,443 C87.0729401,442.994077 95.0260078,439.943663 100.913229,434.805346 C106.797494,429.69072 110.672065,422.283842 110.666154,414.044764 C110.666154,413.878917 110.645466,413.724915 110.639556,413.564991 L416.848918,413.564991 C416.843007,413.724915 416.822319,413.878917 416.822319,414.044764 C416.810498,422.283842 420.688025,429.684797 426.57229,434.805346 C432.462466,439.943663 440.412578,442.994077 449.083816,443 C457.746187,442.994077 465.699255,439.943663 471.592387,434.805346 C477.473697,429.684797 481.351224,422.283842 481.342357,414.044764 C481.342357,413.573875 481.286204,413.111871 481.262561,412.646905 C506.15321,408.020938 525,386.167539 525,359.886598 L525,112.936376 C525,83.2881343 501.02258,59.2579839 471.438704,59.2579839 L471.438704,59.2579839 Z" id="Fill-1" fill-opacity="0.1" fill="#04475E"></path>
                <path d="M211.168578,52.0436079 C211.183355,42.4688634 218.929542,34.7065977 228.484454,34.6858667 L302.346613,34.6858667 C311.907436,34.7065977 319.644757,42.4688634 319.665445,52.0436079 L319.665445,59.2579839 L211.168578,59.2579839 L211.168578,52.0436079 Z M471.438704,59.2579839 L354.27651,59.2579839 L354.27651,52.0436079 C354.267644,23.2927204 331.037948,0.0148078324 302.346613,0 L228.484454,0 C199.796075,0.0148078324 176.566379,23.2927204 176.554557,52.0436079 L176.554557,59.2579839 L53.5672065,59.2579839 C23.9833314,59.2579839 0,83.2881343 0,112.936376 L0,359.886598 C0,387.026393 20.1058045,409.445452 46.2022698,413.043755 C46.1874926,413.378412 46.1461166,413.710107 46.1461166,414.044764 C46.1372503,422.283842 50.0147772,429.69072 55.896087,434.805346 C61.7892186,439.943663 69.7393309,442.994077 78.4046578,443 C87.0729401,442.994077 95.0260078,439.943663 100.913229,434.805346 C106.797494,429.69072 110.672065,422.283842 110.666154,414.044764 C110.666154,413.878917 110.645466,413.724915 110.639556,413.564991 L416.848918,413.564991 C416.843007,413.724915 416.822319,413.878917 416.822319,414.044764 C416.810498,422.283842 420.688025,429.684797 426.57229,434.805346 C432.462466,439.943663 440.412578,442.994077 449.083816,443 C457.746187,442.994077 465.699255,439.943663 471.592387,434.805346 C477.473697,429.684797 481.351224,422.283842 481.342357,414.044764 C481.342357,413.573875 481.286204,413.111871 481.262561,412.646905 C506.15321,408.020938 525,386.167539 525,359.886598 L525,112.936376 C525,83.2881343 501.02258,59.2579839 471.438704,59.2579839 Z" id="Stroke-3" stroke="#FFFFFF" stroke-width="3"></path>
            </g>
        </g>
    </g>
</svg>